<?xml version="1.0" encoding="UTF-8"?>
<!DOCTYPE svg PUBLIC "-//W3C//DTD SVG 1.1//EN" "http://www.w3.org/Graphics/SVG/1.1/DTD/svg11.dtd">
<!-- Creator: CorelDRAW -->
<svg xmlns="http://www.w3.org/2000/svg" xml:space="preserve" width="512px" height="512px" version="1.1" style="shape-rendering:geometricPrecision; text-rendering:geometricPrecision; image-rendering:optimizeQuality; fill-rule:evenodd; clip-rule:evenodd"
viewBox="0 0 91.18 91.18"
 xmlns:xlink="http://www.w3.org/1999/xlink"
 xmlns:xodm="http://www.corel.com/coreldraw/odm/2003">
 <defs>
  <style type="text/css">
   <![CDATA[
    .fil0 {fill:none}
    .fil1 {fill:white;fill-rule:nonzero}
   ]]>
  </style>
 </defs>
 <g id="Livello_x0020_1">
  <metadata id="CorelCorpID_0Corel-Layer"/>
  <rect class="fil0" width="91.18" height="91.18"/>
  <path class="fil1" d="M71.34 25c0,-12.8 -11.52,-23.18 -25.75,-23.18 -14.22,0 -25.75,10.38 -25.75,23.18 0,7.57 4.04,14.3 10.3,18.53l0 4.64c0,2.85 2.3,5.15 5.15,5.15l20.6 0c2.85,0 5.15,-2.3 5.15,-5.15l0 -4.64c6.26,-4.23 10.3,-10.96 10.3,-18.53l0 0zm-29.14 0.71c0,3.22 -2.61,5.83 -5.83,5.83 -3.21,0 -5.82,-2.61 -5.82,-5.83 0,-3.22 2.61,-5.83 5.82,-5.83 3.22,0 5.83,2.61 5.83,5.83zm18.44 0c0,3.22 -2.61,5.83 -5.83,5.83 -3.22,0 -5.83,-2.61 -5.83,-5.83 0,-3.22 2.61,-5.83 5.83,-5.83 3.22,0 5.83,2.61 5.83,5.83zm20.59 30.78c-1.09,-2.63 -4.1,-3.87 -6.72,-2.77l-28.92 12.04 -28.92 -12.04c-2.62,-1.1 -5.63,0.14 -6.72,2.77 -1.1,2.62 0.14,5.63 2.77,6.72l19.48 8.13 -19.48 8.13c-2.63,1.09 -3.87,4.1 -2.77,6.72 1.09,2.62 4.1,3.86 6.72,2.77l28.92 -12.04 28.92 12.04c2.62,1.09 5.63,-0.15 6.72,-2.77 1.1,-2.62 -0.14,-5.63 -2.76,-6.72l-19.49 -8.13 19.49 -8.13c2.62,-1.09 3.86,-4.1 2.76,-6.72z"/>
 </g>
</svg>
