<?xml version="1.0" encoding="UTF-8"?>
<!DOCTYPE svg PUBLIC "-//W3C//DTD SVG 1.1//EN" "http://www.w3.org/Graphics/SVG/1.1/DTD/svg11.dtd">
<!-- Creator: CorelDRAW -->
<svg xmlns="http://www.w3.org/2000/svg" xml:space="preserve" width="512px" height="512px" version="1.1" style="shape-rendering:geometricPrecision; text-rendering:geometricPrecision; image-rendering:optimizeQuality; fill-rule:evenodd; clip-rule:evenodd"
viewBox="0 0 516.4 516.4"
 xmlns:xlink="http://www.w3.org/1999/xlink"
 xmlns:xodm="http://www.corel.com/coreldraw/odm/2003">
 <defs>
  <style type="text/css">
   <![CDATA[
    .fil0 {fill:none}
    .fil1 {fill:white}
   ]]>
  </style>
 </defs>
 <g id="Livello_x0020_1">
  <metadata id="CorelCorpID_0Corel-Layer"/>
  <rect class="fil0" width="516.4" height="516.4"/>
  <path class="fil1" d="M263.45 10.36c-81.41,-2.28 -149.77,106.83 -152.67,243.7 -0.9,42.61 4.64,82.88 15.17,118.21 9.65,-75.67 27.15,-154.54 50.03,-215.24 4.67,-12.41 31.42,-81.56 39.43,-81.1 29.48,1.7 98.34,300.97 96.84,368.71 -65.97,-128.23 -96.13,-190.21 -169.42,-28.36 25.91,53.78 65.32,88.5 110.12,89.76 81.41,2.28 149.77,-106.83 152.67,-243.7 2.9,-136.88 -60.75,-249.69 -142.17,-251.98z"/>
 </g>
</svg>
