<?xml version="1.0" encoding="UTF-8"?>
<!DOCTYPE svg PUBLIC "-//W3C//DTD SVG 1.1//EN" "http://www.w3.org/Graphics/SVG/1.1/DTD/svg11.dtd">
<!-- Creator: CorelDRAW -->
<svg xmlns="http://www.w3.org/2000/svg" xml:space="preserve" width="512px" height="512px" version="1.1" style="shape-rendering:geometricPrecision; text-rendering:geometricPrecision; image-rendering:optimizeQuality; fill-rule:evenodd; clip-rule:evenodd"
viewBox="0 0 91.18 91.18"
 xmlns:xlink="http://www.w3.org/1999/xlink"
 xmlns:xodm="http://www.corel.com/coreldraw/odm/2003">
 <defs>
  <style type="text/css">
   <![CDATA[
    .fil0 {fill:none}
    .fil1 {fill:white}
    .fil2 {fill:white;fill-rule:nonzero}
   ]]>
  </style>
 </defs>
 <g id="Livello_x0020_1">
  <metadata id="CorelCorpID_0Corel-Layer"/>
  <rect class="fil0" width="91.18" height="91.18"/>
  <g id="_2115208997520">
   <g>
    <path class="fil1" d="M19.6 88.16c5.84,-56.38 23.59,-86.01 28.26,-86.33 4.95,-0.35 25.15,50.13 23.64,87.53 -7.32,-12.67 -14.57,-25.33 -20.68,-27.24 0.05,-0.74 0.38,-1.71 0.98,-2.93 1.46,-3.05 2.55,-5.24 3.23,-6.59 1.53,-3.03 2.41,-4.93 2.61,-5.71 0,-0.01 0.02,-0.02 0.03,-0.05 0.05,-0.14 0.1,-0.24 0.12,-0.35 0.06,-0.17 0.11,-0.31 0.15,-0.44 0.04,-0.12 0.07,-0.2 0.08,-0.24 0.04,-0.1 0.07,-0.15 0.07,-0.18 0.12,-0.25 0.19,-0.44 0.19,-0.58 0.18,-0.43 0.29,-0.73 0.33,-0.9 0.01,-0.05 0.01,-0.48 0.01,-1.32l0 -17.58c0,-1.26 -0.38,-2.49 -1.13,-3.72 -1.69,-2.72 -3.91,-4.09 -6.68,-4.09l-7.81 0c-1.26,0 -2.5,0.38 -3.72,1.14 -2.72,1.69 -4.09,3.92 -4.09,6.67l0 7.83 7.81 0 0 -5.86c0,-1.32 0.65,-1.97 1.95,-1.97l3.87 0c0.48,0 0.93,0.2 1.34,0.61 0.4,0.41 0.61,0.87 0.61,1.36 0,0.66 0.01,1.07 0.02,1.18 0.02,0.1 0.02,0.91 0.02,2.41 0,0.04 0,0.3 0,0.77 0,0.67 0,1.06 0,1.17l0 4.56c0,3.51 -0.03,5.34 -0.08,5.52 0,1.03 -0.44,2.55 -1.3,4.57 -0.63,1.39 -1.73,3.56 -3.29,6.51 -1.41,2.57 -2.18,4.09 -2.32,4.57 -0.4,1.24 -0.63,2.12 -0.69,2.61 -0.09,0.36 -0.13,0.83 -0.13,1.43l0 3.23c-8.22,6.95 -15.88,14.59 -23.4,22.41z"/>
    <path class="fil2" d="M46.9 79.93c1.01,0 1.92,0.41 2.72,1.21 0.8,0.8 1.19,1.69 1.19,2.71 0,0.96 -0.41,1.86 -1.24,2.67 -0.82,0.81 -1.72,1.22 -2.67,1.22 -0.95,0 -1.84,-0.41 -2.67,-1.23 -0.83,-0.82 -1.23,-1.71 -1.23,-2.66 0,-1 0.4,-1.9 1.2,-2.71 0.82,-0.8 1.71,-1.21 2.7,-1.21z"/>
   </g>
   <path class="fil1" d="M52.73 83.53c0,-3.22 -2.61,-5.83 -5.83,-5.83 -3.22,0 -5.83,2.61 -5.83,5.83 0,3.22 2.61,5.83 5.83,5.83 3.22,0 5.83,-2.61 5.83,-5.83z"/>
  </g>
 </g>
</svg>
