<?xml version="1.0" encoding="UTF-8"?>
<!DOCTYPE svg PUBLIC "-//W3C//DTD SVG 1.1//EN" "http://www.w3.org/Graphics/SVG/1.1/DTD/svg11.dtd">
<!-- Creator: CorelDRAW -->
<svg xmlns="http://www.w3.org/2000/svg" xml:space="preserve" width="512px" height="512px" version="1.1" style="shape-rendering:geometricPrecision; text-rendering:geometricPrecision; image-rendering:optimizeQuality; fill-rule:evenodd; clip-rule:evenodd"
viewBox="0 0 155 155"
 xmlns:xlink="http://www.w3.org/1999/xlink"
 xmlns:xodm="http://www.corel.com/coreldraw/odm/2003">
 <defs>
  <style type="text/css">
   <![CDATA[
    .fil0 {fill:none}
    .fil1 {fill:white}
   ]]>
  </style>
 </defs>
 <g id="Livello_x0020_1">
  <metadata id="CorelCorpID_0Corel-Layer"/>
  <rect class="fil0" width="155" height="155"/>
  <g id="_2114265559456">
   <path class="fil1" d="M101.27 94c0.06,-0.07 0.14,0.21 0.16,0.23l-0.16 -0.23zm-19.48 -16.93l-2.51 -0.02c-1.48,-2.28 -0.67,-0.99 -2.92,-2.22l0.71 -1.41c2.2,0.35 0.25,0.28 2.2,1.56 0.14,0.08 0.6,0.28 0.64,0.29 1.03,0.26 2.61,-0.49 1.88,1.8zm19.84 -3.35c0.07,1.48 -0.04,-1.06 0,0zm-3.12 -5.12c0.25,0.66 0.83,0.96 1.28,2.07l-1.28 -2.07zm-34.25 -0.57c0.43,-0.94 2.36,-2.57 3.36,-2.95 -0.15,1.23 0.09,0.34 -0.45,1.06l-1.87 2.75c-1.15,-0.57 -0.38,0.01 -1.04,-0.86zm25.42 -6.58l2.99 2.18 -2.99 -2.18zm-27.03 18.25c1.17,-1.27 0.21,-1.27 0.99,-2.71l1.24 -2.17c0.92,-2.45 2.58,-1.79 4.38,-2.8 0.16,-1.45 -0.18,-3.22 -0.77,-4.12l-0.71 -1.23c1.32,-0.4 1.15,-0.4 2.09,-1.14 -0.38,-1.27 -1.21,-1.5 -1.43,-2.81l0.81 -0.74c1.33,0.36 0.77,0.46 1.88,1.09 -0.33,1.76 -0.62,2.75 0.25,4.26 1.8,-0.45 0.71,-0.12 1.75,-1.35 1.5,-1.76 3.4,-2.54 4.22,-5.03 -1.31,0.03 -2.4,0.13 -3.71,0.27 -2.36,0.26 -3.97,-1.06 -5.85,0.19 -0.9,0.6 0.22,0.43 -1.31,0.66 -0.39,0.06 -1.36,-0.04 -1.78,-0.07l1.46 -1.07c3.4,-1.62 7.08,-2.38 10.91,-2.41 6.04,-0.05 7.9,1.25 12.59,2.77 -0.96,0.36 -0.7,0.18 -2.04,0.16 0.54,1.22 0.74,1.04 -0.46,1.79 -1.02,0.65 -1.42,1.09 -2.76,0.85l0.36 -1.7 -1.62 0.71 0.34 2.21c-2.1,-0.03 -1.64,-1.73 -3.79,-0.75 -1.28,0.59 -1.82,1.69 -2.52,2.71 0.32,0.56 0.51,0.78 1.04,1.43 1.09,-0.69 0.25,-0.13 1.14,-1.25 0.44,0.73 0.29,0.43 0.06,1.4 -1.34,0.58 -1.84,0.24 -3.04,1.04l-0.75 -1.8 -1.28 2 1.59 0.29c-0.75,1.69 -0.46,0.42 -0.17,2.29l-1.74 0.12c0.15,1.46 0.47,1.94 0.9,2.83 -1.36,2.39 -2.15,3.02 -2.05,6.84 0.04,1.74 0.03,2.73 1.07,3.52 0.52,0.39 0.79,0.43 1.51,0.42l1.16 -0.01c0.04,-0.1 0.19,0.04 0.29,0.07 0.82,2.21 1.27,3.87 1.16,6.62 -0.11,3.05 0.75,4.09 0.8,7.37l2.39 -0.22c1.32,-1.96 1.12,-4.9 2.72,-6.12 -0.04,-1.53 -0.26,-4.75 0.41,-5.86 1.13,-1.87 1.15,-1.42 1.69,-4.12l-1.64 -0.16c0.4,-0.39 1.84,-1.54 2.13,-1.9 0.6,-0.76 0.75,-2.42 1.23,-2.95 1.74,1.51 1.56,3.45 2.43,5.36 0.29,0.63 0.08,0.19 0.52,0.59 1.73,-1.03 1.01,-3.07 1.78,-5l1.87 2.93c0.84,1.39 0.54,1.43 2.44,2.07 0.23,-1.56 -0.05,-2.61 -0.62,-3.75l1.13 -0.69c3.01,-1.84 -0.52,-4.02 0.61,-6.41l0.61 1.16 0.9 -0.81c-0.11,-1.64 0.5,-1.78 0.34,-3.91 1.34,1.6 0.9,1.98 1.06,4.58 -1.11,0.98 -0.75,0.33 -1.03,1.59l2.06 -0.36 -0.16 -2.34c1.27,1.98 2,4.71 2.4,7.48 0.48,3.31 -0.28,6.63 0.07,9.28 -1.25,-0.57 -0.4,-0.12 -1.31,-0.85 -0.52,-0.42 -1.22,-1.06 -1.97,-1.1 -2.37,-0.1 -0.31,-0.13 -1.2,0.44 1.61,0.59 1.54,0.29 2.11,2.1l0.82 -0.14c0.21,0.03 0.94,-0.22 0.9,1 -0.01,0.17 -0.19,0.56 -0.29,0.69 -0.54,0.7 -0.79,0.31 -1.18,1.32 -1.14,-1.48 -0.65,-1.78 -2.57,0.68 -2.15,2.73 -1.95,0.27 -3.04,5.02l1.81 0.25c0.35,3.44 -2.48,4.83 -4.27,6.29 -5.77,4.72 -4.45,2.08 -6.69,1.58 -1.31,0.16 -4.4,0.87 -4.86,0.84 -1.66,-0.1 -3.31,-0.66 -4.84,0.18 -1.25,0.7 -2.19,1.84 -4.32,1.41 -2.59,-0.52 -1.98,-1.43 -2.2,-2.81 -1.27,-0.28 -1.87,1.01 -3.14,1.6 -1.27,-0.46 -1.81,-0.76 -3.27,-0.68 -3.36,0.19 -10.81,-8.51 -12.98,-15.3 -2.49,-7.79 -1.16,-19.44 5.24,-25.15 0.09,6.04 -3.21,9.82 2.94,14.3l2.9 3.31 -0.26 2.21c-0.92,3.83 1.91,4.81 2.06,8.79 0.1,2.57 0.14,9.68 2.8,10.43 0.27,-1.69 -0.72,-3.25 0.76,-6.45 0.83,-1.8 0.58,-1.08 0.94,-3.22 0.37,-2.16 0.4,-0.7 1.63,-2.27 0.21,-2.69 -0.12,-2.61 0.73,-4.93l-6.08 -6.12 -2.66 0.37c-0.67,-1.69 -1.35,-2.12 -0.82,-3.86 -0.21,0.05 -0.95,0.29 -0.97,0.3l-0.53 0.04c-0.04,-0.08 -0.17,-0.01 -0.26,-0.02 -0.34,-1.84 -0.14,-3.07 1.76,-3.44l0.76 2zm43.76 9.59c0.68,-4.51 0.08,-8.91 -1.18,-12.97 -2.18,-7.01 -6.89,-12.29 -13.12,-16.1 -17.08,-10.42 -40.55,0.08 -43.63,21.38 -2.47,17.12 10.26,30.85 25.05,32.86 12.21,1.65 23.89,-4.83 29.22,-14.29 1.92,-3.4 3,-6.5 3.66,-10.88z"/>
   <path class="fil1" d="M50.53 110.54c-0.07,-3.57 -0.99,-5.6 -2.66,-8.38 -0.7,-1.16 -0.51,-1.49 -1.54,-2.29 -0.07,2.48 -0.16,5.33 0.37,7.22 -1.59,-1.11 -1.48,-1.38 -2.61,-2.99 1.7,-2.69 0.33,-7.84 -0.44,-10.94 -0.2,-0.77 -0.07,-0.39 -0.36,-0.84 -1.41,2.1 -2.13,6.14 -1.22,8.67 -1.28,-1.07 -1.86,-3.39 -2.51,-4.87 2.53,-1.86 2.7,-6.97 2.56,-11.41 -1.8,1.47 -3.22,4.72 -3.47,7.99 -0.45,-0.99 -0.93,-3.63 -1.05,-4.93 1.03,-0.87 0.95,-0.84 1.81,-1.98 0.57,-0.76 1.22,-1.67 1.59,-2.61l1.88 -6.04c-1.74,0.51 -3.51,2.72 -4.35,4.35l-0.38 0.83c-0.04,0.1 -0.07,0.21 -0.1,0.3 -0.29,0.73 -0.14,0.51 -0.41,0.91 -0.11,-2.39 0.35,-2.9 0.35,-4.88 1.86,-0.39 3.37,-2.16 4.32,-3.62 1.11,-1.67 2.64,-3.12 3.29,-5.07 -2.11,0.93 -4.51,2.09 -6.01,3.92 0.27,-3.21 2.38,-3.38 4.69,-4.88 1.54,-1 4.15,-2.91 5.08,-4.4 -2.55,0.01 -4.8,0.93 -6.39,2.47 0.21,-1.24 1.12,-2.02 1.85,-3.18 3.41,-0.11 6.68,-0.94 9.1,-3.07 -1.17,-0.73 -3.64,-0.48 -4.95,-0.02 -0.74,0.27 -0.42,0.16 -0.78,0.37l1.66 -2.17c1.34,0.67 8.59,0.42 10.11,-0.43 -2.63,-1.44 -3.88,-1.03 -7.49,-1.23 2.31,-3.28 4.37,0.1 9.06,-6.77l-5.05 1.73c-1.24,0.74 -1.3,1.74 -2.3,2.72 -0.63,0.62 -1.65,1.06 -2.35,1.58 0.39,-1.68 1.45,-2.6 1.73,-5.3 -1.46,1.07 -2.57,1.51 -3.92,2.95 -1.33,1.41 -1.85,2.83 -1.47,5.04l-2.73 2.59c-0.32,-0.44 0.5,-2.21 0.53,-2.94 0.04,-1.21 0,-2.65 -0.05,-3.86 -3.26,2.24 -3.78,5.15 -3.77,9.15l1.12 0.38c-0.85,0.65 -2.17,2.72 -2.42,3.4 -0.35,-1.56 -0.04,-2.45 -0.44,-3.93l-0.86 -2.55c-0.25,-0.52 -0.23,-0.42 -0.45,-0.71 -4.05,8.87 0.21,9.63 -0.66,12.59 -0.14,0.48 -0.14,0.46 -0.31,0.86l-0.54 0.94c-0.45,-1.07 -0.65,-2.16 -1.29,-3.23 -0.52,-0.88 -1.23,-2 -1.76,-2.73 -1.42,2.29 -1.63,8.67 2.28,10.9l-0.41 4.18c-1.47,-1.92 -2.61,-5.14 -5.28,-5.61 2.95,12.25 2.9,7.6 5.39,10.52 0.62,0.73 0.95,2.97 1.04,4.22 -1.57,-1.94 -4.45,-3.94 -6.83,-4.91 0.33,1.23 1.24,2.83 1.85,3.99 3.8,7.23 5.6,3.53 7.54,7.51 0.37,0.75 0.76,1.33 1.26,1.77l-0.98 -0.14c-0.38,-0.23 -0.6,-0.3 -1.02,-0.51 -1.96,-0.99 -3.94,-1.98 -6.35,-2.02l4.26 4.86c2.16,1.99 3.49,2.31 7.32,2.36 0.34,1.08 2.15,2.64 3.17,3.49 -0.28,0.29 -1.8,-0.73 -4.58,-1.13 -0.92,-0.13 -1.58,-0.05 -2.48,-0.18 -0.87,-0.12 -1.24,-0.28 -2.72,-0.3 0.91,1.43 3.68,3.18 5.5,3.99 2.87,1.27 4.6,1.3 7.76,0.19l4.88 2.64c-1.46,-0.04 -1.51,-0.38 -2.57,-0.33 -0.68,0.03 -1.42,0.26 -2.68,0.35 -1.13,0.09 -4.48,0.76 -5.29,1.14l6.8 1.91c2.94,0.23 5.3,-0.75 6.47,-2.25 1.05,0.51 2.28,0.73 3.83,0.76 -1.94,1.98 -5.86,2.56 -8.02,4.51 9.13,0.14 9.25,-2.08 11.98,-3.56 1.63,-0.88 0.63,0.66 1.31,-0.98 -0.08,-0.06 -0.21,-0.22 -0.26,-0.14 -0.04,0.08 -0.2,-0.1 -0.27,-0.12 -1.22,-0.37 -1.4,-0.16 -2,-1.39 -0.78,-1.57 -1.52,-2.19 -3.15,-2.89 -0.08,-0.03 -0.18,-0.07 -0.27,-0.11 -0.09,-0.03 -0.19,-0.06 -0.28,-0.1l-4.03 -1.74c0.52,2.34 1.95,3.98 3.77,5.29 -1.22,-0.06 -2.2,-0.39 -3.34,-0.74 -0.29,-1 -0.39,-2.05 -0.92,-2.87 -0.28,-0.44 -1.2,-1.47 -1.71,-2.11 -0.54,-0.69 -1.21,-1.21 -1.88,-1.92 -0.9,-0.95 -1.06,-1.46 -2.38,-1.82 0.28,1.18 0.48,2.2 0.83,3.39 0.29,1.01 0.92,2.12 1.43,3.06l-2.98 -1.87z"/>
   <path class="fil1" d="M101.5 51.48c0.35,1.7 1.28,3.16 1.51,4.78 -0.97,-0.43 -1.67,-0.67 -2.35,-1.49 -0.74,-0.9 -0.33,-1.42 -1.55,-2.32 -1.17,-0.86 -4.29,-1.94 -5.52,-1.66 1.14,0.8 2.34,3.02 3.68,3.86 1.58,1 2.79,0.66 4.06,1.63l1.25 1.08c-3.2,0.06 -5.37,-0.12 -7.58,1.4 3.66,0.66 7.59,0.13 10.71,0.76l1.21 1.05c-1.27,0.36 -3.69,-0.34 -5.85,0.03 1.05,2.12 6.93,3.25 9.14,3.28 1.48,1.91 1.56,2.88 1.75,2.51 0.04,-0.07 0.12,0.23 0.18,0.35 -1.94,-1.16 -4.07,-2.44 -6.46,-1.94 2.71,2.07 5.11,4.91 9.06,6.14 0.19,0.83 0.12,0.65 0.31,1.29l0.36 0.97c0.03,-0.06 0.1,0.23 0.15,0.34l-3.16 -2.12c-1.12,-0.69 -1.71,-0.99 -2.95,-1.35 0.37,0.92 1.01,1.59 1.58,2.35 1.92,2.59 3.4,4.73 6.03,6.49 0.07,1.65 0.62,3.43 0.25,4.5 -0.35,-0.65 -0.17,-0.8 -0.6,-1.7 -0.79,-1.65 -2.41,-3.42 -4,-4.16 -0.52,3.71 2.29,7.37 4.4,10.12 0.8,1.05 -0.25,3.57 -0.76,4.91 -0.14,-2.49 -0.71,-3.88 -1.91,-5.93l-1.56 -1.67c0.01,3.32 0.14,10.69 2.99,11.29 -1.55,1.64 -1.35,3.84 -2.97,4.58 1.36,-1.76 -0.4,-6.81 -0.91,-8.48 -0.84,0.74 -1.15,3.37 -1.37,4.58 -0.02,0.12 -0.02,0.22 -0.04,0.33 -0.02,0.12 -0.04,0.22 -0.06,0.33l-0.14 0.62c-0.46,2.49 -0.09,4.61 0.68,6.5 -0.9,0.46 -1.03,1.27 -1.97,1.86l-0.69 0.29c0.75,-1.56 0.3,-4.86 0.34,-6.78 -0.63,0.28 -0.94,1.09 -1.26,1.71 -0.05,0.1 -0.21,0.41 -0.26,0.51l-1.14 1.9c-0.04,0.07 -0.09,0.17 -0.13,0.25l-1.21 2.92c-0.31,1.24 -0.2,2.19 -0.23,3.52l-3.02 1.4c1.43,-2.01 1.78,-3.9 2.26,-6.29 -1.35,0.46 -0.29,-0.22 -1.42,0.95 -2.41,2.5 -4.46,4.19 -5.37,7.79l-2.63 0.15c0.35,-0.29 0.14,-0.02 0.62,-0.55 0.62,-0.68 0.27,-0.44 0.8,-1.1 1.02,-1.29 1,-1.14 1.56,-2.9 -1.12,0.23 -4.38,1.57 -5.13,2.01 -4.09,2.38 -0.72,3.05 -5.1,4.25 0.45,1.23 1.09,0.41 2.57,1.83 2.45,2.35 7.27,2.82 10.7,2.68 -2.12,-1.89 -5.33,-2.43 -7.71,-4.13 0.46,-0.29 -0.5,0.07 0.75,-0.37 4.65,-1.61 3.9,2.03 9.48,1.5 2.06,-0.2 4.97,-0.6 6.56,-2.04 -1.62,-0.44 -3.71,-0.87 -5.41,-1 -1.12,-0.08 -1.94,-0.33 -2.67,-0.34 -1.03,-0.02 -1.23,0.31 -2.51,0.22 0.69,-0.31 1.46,-0.58 2.19,-0.94 0.93,-0.45 1.52,-0.98 2.23,-1.28 1.46,-0.61 2.59,0.77 5.27,0.4 2.85,-0.39 7.63,-2.89 8.42,-4.91 -2.83,0.05 -7.49,0.68 -9.44,1.76 0.56,-0.94 2.52,-2.74 3.34,-3.58 1.58,-0.72 6.27,0.96 11.1,-7.23 -3.4,0.09 -5.49,2.04 -8.32,2.85 0.84,-1.02 1.25,-2.79 2.28,-3.57 2.1,-1.59 3.87,-0.38 6.44,-5.69 0.64,-1.34 1.34,-2.59 1.91,-4.07 -1.86,0.61 -5.86,3.54 -6.8,4.69 0.4,-8.6 3.26,0.62 6.41,-14.73 -2.61,0.93 -3.65,3.54 -5.26,5.56 -0.04,-0.65 0.01,-1.49 -0.06,-2.14 -0.19,-1.84 -0.22,0 -0.34,-1.81 1.84,-1.45 2.29,-1.25 2.87,-4.36 0.22,-1.17 0.2,-2.52 0.14,-3.73 -0.07,-1.36 -0.33,-2.04 -1.11,-2.82l-2.8 5.71c-2.68,-4.38 1.8,-2.92 -0.16,-10.55 -0.62,-2.38 -0.16,-2.14 -1.62,-3.48 -0.14,1.47 -0.56,1.98 -0.9,3.3 -0.36,1.44 -0.09,2.39 -0.46,3.54 -0.37,-0.79 -1.72,-2.78 -2.45,-3.36 1.82,-0.52 0.44,-0.05 1.14,-0.67 0.05,-2.37 0.3,-3.56 -0.75,-5.26l-1.27 -1.85c-0.75,-1.09 -0.56,-1.03 -1.85,-1.36l0.47 5.96c-1.76,-0.63 -1.25,-0.92 -2.6,-1.88 0.36,-2.12 0.15,-3.36 -1.41,-5.03 -0.97,-1.05 -2.31,-2.46 -3.95,-2.96zm10.9 25.95c0,-0.08 -0.16,-0.15 -0.21,-0.1 -0.05,0.06 0.19,0.09 0.21,0.1l0 0z"/>
   <path class="fil1" d="M76.61 16.41c0,-1.99 -0.35,-3.34 0.84,-4.52 1.03,0.41 0.95,0.02 1.1,1.86l0 18.6c0,2.53 0.1,2.36 -0.99,4.02 -0.87,-1.58 -0.95,-1.58 -0.95,-4.02l0 -15.94zm-3.86 19.74c0.73,0.79 1.13,1.45 2.04,1.57l6.08 0.01c0.65,-0.6 1,-0.94 1.52,-1.58 0.06,-5.48 0.24,-11.04 0.58,-16.32 0.65,-10.17 4.03,-9.33 -5.14,-9.34 -10.14,-0.02 -6.25,-0.23 -5.66,8.95 0.35,5.52 0.53,11.14 0.58,16.71z"/>
   <path class="fil1" d="M78.1 151.63c1.29,-0.9 4.15,-5.61 4.3,-6.53 0.41,-2.51 0.41,-6.89 0.57,-9.52 0.39,-6.45 1.05,-13.47 1.09,-19.84l-5.99 0.71 0.03 35.18z"/>
   <path class="fil1" d="M71.05 115.91c-0.37,5.19 0.73,14.47 1.05,20.05 0.13,2.24 0.07,8.24 0.82,9.91 0.39,0.87 3.5,5.49 4.11,6.03l-0.2 -35.38 -5.78 -0.61z"/>
   <path class="fil1" d="M65.3 43.48l25.16 -0.01c0.84,-1.52 2.46,-3.04 3.49,-4.48 0.98,-1.37 2.98,-3.14 3.08,-4.51 -0.01,0 0.08,-1.2 -2.15,0.5 -8.27,6.31 -4.41,4.45 -17.05,4.44 -2.4,0 -10.98,0.56 -12.21,-0.18 -1.74,-1.05 -5.11,-4.86 -7.64,-5.05 0.25,1.96 3.33,4.89 5.21,7.12 0.94,1.1 0.75,1.55 2.11,2.17z"/>
   <path class="fil1" d="M78.14 46.77l0.16 7.83c3.98,0.03 6.13,1.07 9.33,1.67 0.14,-1.91 0.66,-6.52 -0.05,-7.88 -1.53,-2.94 -4.34,0.6 -5.11,-3.85l-4.3 -0.04 -0.03 2.27z"/>
   <path class="fil1" d="M67.34 55.76c0.26,0.02 9.13,-1.43 9.22,-1.47 0.68,-0.59 0.36,-3.53 0.36,-4.48 0,-1.71 -0.11,-3.45 0.04,-5.14l-4.36 0.34c-1.9,3.76 -2.81,0.86 -4.73,2.82 -1.33,1.36 -0.61,5.7 -0.53,7.93z"/>
   <path class="fil1" d="M74.01 8.82c1.24,1.31 6.1,1.27 7.25,0 -0.88,-0.94 0.06,-0.3 -1.96,-1.07 -0.51,-2.65 -0.25,-3.64 -1.47,-4.65 -2.39,0.82 -0.69,3.43 -2.18,4.68 -0.46,0.4 -0.33,0.13 -0.74,0.37l-0.7 0.46c-0.05,0.04 -0.13,0.14 -0.2,0.21z"/>
   <path class="fil1" d="M95.1 88.32c0.76,3.01 0.71,1.85 1.6,2.29 -0.7,-3.61 0.47,-4.57 -1.92,-5.15 -0.47,1.66 -0.05,1.43 0.32,2.86z"/>
   <path class="fil1" d="M84.43 97.78c0.69,-1.27 1.59,-3.18 1.49,-5.15 -1.55,0.27 -1.71,0.62 -1.87,2.33 -0.29,3.08 0.33,2.74 0.38,2.82z"/>
   <path class="fil1" d="M98.72 85.46c-2.04,2.5 -2.44,3.46 -0.77,4.3l0.77 -4.3z"/>
   <path class="fil1" d="M98.77 84.35c0.37,0.5 1.01,1.42 1.44,1.91 0.26,-3.43 -1.31,-2.07 -1.26,-4.73l-0.18 2.82z"/>
  </g>
 </g>
</svg>
