<?xml version="1.0" encoding="UTF-8"?>
<!DOCTYPE svg PUBLIC "-//W3C//DTD SVG 1.1//EN" "http://www.w3.org/Graphics/SVG/1.1/DTD/svg11.dtd">
<!-- Creator: CorelDRAW -->
<svg xmlns="http://www.w3.org/2000/svg" xml:space="preserve" width="250px" height="250px" version="1.1" style="shape-rendering:geometricPrecision; text-rendering:geometricPrecision; image-rendering:optimizeQuality; fill-rule:evenodd; clip-rule:evenodd"
viewBox="0 0 71.17 71.17"
 xmlns:xlink="http://www.w3.org/1999/xlink"
 xmlns:xodm="http://www.corel.com/coreldraw/odm/2003">
 <defs>
  <style type="text/css">
   <![CDATA[
    .fil1 {fill:none}
    .fil0 {fill:white}
   ]]>
  </style>
 </defs>
 <g id="Livello_x0020_1">
  <metadata id="CorelCorpID_0Corel-Layer"/>
  <path class="fil0" d="M14 70.45c3.03,-44.58 22.15,-69.24 23.21,-69.74 3.86,-0.26 18.79,35.15 19.96,64.3 -3.45,-5.12 -6.63,-19.11 -13.96,-19.24 -7.32,-0.13 -22.58,17.8 -29.21,24.68zm22.12 -28.1c0.46,0 0.88,0.18 1.25,0.55 0.37,0.37 0.55,0.79 0.55,1.26 0,0.44 -0.18,0.86 -0.57,1.23 -0.38,0.38 -0.79,0.57 -1.23,0.57 -0.44,0 -0.86,-0.19 -1.24,-0.57 -0.38,-0.38 -0.57,-0.79 -0.57,-1.23 0,-0.47 0.19,-0.88 0.56,-1.26 0.38,-0.37 0.79,-0.55 1.25,-0.55zm-5.42 -21.67l0 -3.62c0,-1.28 0.63,-2.31 1.89,-3.09 0.57,-0.35 1.14,-0.53 1.72,-0.53l3.61 0c1.28,0 2.31,0.64 3.1,1.9 0.34,0.56 0.52,1.13 0.52,1.72l0 8.12c0,0.39 0,0.59 -0.01,0.62 -0.02,0.07 -0.07,0.21 -0.15,0.41 0,0.07 -0.03,0.15 -0.09,0.27 0,0.02 -0.01,0.04 -0.03,0.08 -0.01,0.02 -0.02,0.06 -0.04,0.12 -0.02,0.05 -0.04,0.12 -0.07,0.2 -0.01,0.05 -0.03,0.1 -0.05,0.16 -0.01,0.01 -0.01,0.02 -0.01,0.03 -0.1,0.35 -0.51,1.23 -1.21,2.64 -0.32,0.62 -0.82,1.63 -1.5,3.05 -0.31,0.62 -0.46,1.1 -0.46,1.46l0 4.52 -3.61 0 0 -4.45c0,-0.27 0.02,-0.49 0.06,-0.66 0.03,-0.22 0.14,-0.63 0.32,-1.21 0.07,-0.22 0.42,-0.92 1.08,-2.11 0.72,-1.36 1.23,-2.37 1.51,-3.01 0.41,-0.94 0.61,-1.64 0.61,-2.12 0.02,-0.08 0.03,-0.92 0.03,-2.55l0 -2.11c0,-0.05 0,-0.23 0,-0.53 0,-0.22 0,-0.34 0,-0.36 0,-0.7 0,-1.07 0,-1.12 -0.01,-0.05 -0.01,-0.24 -0.01,-0.54 0,-0.23 -0.1,-0.44 -0.29,-0.63 -0.18,-0.19 -0.39,-0.28 -0.62,-0.28l-1.79 0c-0.6,0 -0.9,0.3 -0.9,0.91l0 2.71 -3.61 0z"/>
  <rect class="fil1" width="71.17" height="71.17"/>
 </g>
</svg>
