<?xml version="1.0" encoding="UTF-8"?>
<!DOCTYPE svg PUBLIC "-//W3C//DTD SVG 1.1//EN" "http://www.w3.org/Graphics/SVG/1.1/DTD/svg11.dtd">
<!-- Creator: CorelDRAW -->
<svg xmlns="http://www.w3.org/2000/svg" xml:space="preserve" width="1000px" height="317px" version="1.1" style="shape-rendering:geometricPrecision; text-rendering:geometricPrecision; image-rendering:optimizeQuality; fill-rule:evenodd; clip-rule:evenodd"
viewBox="0 0 376.35 119.19"
 xmlns:xlink="http://www.w3.org/1999/xlink"
 xmlns:xodm="http://www.corel.com/coreldraw/odm/2003">
 <defs>
  <style type="text/css">
   <![CDATA[
    .fil1 {fill:white}
    .fil0 {fill:white;fill-rule:nonzero}
   ]]>
  </style>
 </defs>
 <g id="Livello_x0020_1">
  <metadata id="CorelCorpID_0Corel-Layer"/>
  <polygon class="fil0" points="10.33,106.07 10.33,23.45 0,23.45 0,13.12 30.99,13.12 30.99,23.45 20.66,23.45 20.66,106.07 "/>
  <path id="_1" class="fil0" d="M49.92 49.27l7.75 0c0.66,0 1.23,-0.27 1.77,-0.81 0.54,-0.56 0.81,-1.15 0.81,-1.79l0 -20.62c0,-1.74 -0.86,-2.6 -2.58,-2.6l-7.75 0 0 25.82zm-10.33 56.8l0 -92.95 20.66 0c3.64,0 6.58,1.81 8.82,5.41 1.01,1.6 1.51,3.25 1.51,4.9l0 25.84c0,3.64 -1.81,6.58 -5.42,8.82 -1.59,1 -3.24,1.51 -4.91,1.51l-5.16 0 15.47 46.47 -10.33 0 -10.31 -31 0 31 -10.33 0z"/>
  <polygon id="_2" class="fil0" points="79.19,106.07 79.19,13.12 89.51,13.12 89.51,106.07 "/>
  <polygon id="_3" class="fil0" points="98.12,13.12 108.45,13.12 116.2,59.61 123.94,13.12 134.27,13.12 116.2,106.07 "/>
  <polygon id="_4" class="fil0" points="142.88,106.07 142.88,13.12 153.21,13.12 153.21,106.07 "/>
  <polygon class="fil0" points="236.82,106.07 236.82,23.45 226.5,23.45 226.5,13.12 257.48,13.12 257.48,23.45 247.15,23.45 247.15,106.07 "/>
  <path id="_1_0" class="fil0" d="M276.42 49.27l7.74 0c0.67,0 1.24,-0.27 1.78,-0.81 0.54,-0.56 0.81,-1.15 0.81,-1.79l0 -20.62c0,-1.74 -0.86,-2.6 -2.59,-2.6l-7.74 0 0 25.82zm-10.33 56.8l0 -92.95 20.66 0c3.64,0 6.58,1.81 8.82,5.41 1,1.6 1.5,3.25 1.5,4.9l0 25.84c0,3.64 -1.81,6.58 -5.41,8.82 -1.6,1 -3.25,1.51 -4.91,1.51l-5.17 0 15.48 46.47 -10.33 0 -10.31 -31 0 31 -10.33 0z"/>
  <polygon id="_2_1" class="fil0" points="305.68,106.07 305.68,13.12 336.67,13.12 336.67,23.45 316.01,23.45 316.01,49.27 331.5,49.27 331.5,59.6 316.01,59.6 316.01,95.75 336.67,95.75 336.67,106.07 "/>
  <polygon id="_3_2" class="fil0" points="345.27,106.07 345.27,13.12 355.6,13.12 355.6,44.1 365.91,13.12 376.24,13.12 362.52,54.31 376.35,106.07 365.91,106.07 355.6,64.76 355.6,106.07 "/>
  <path class="fil1" d="M158.13 119.19c5.17,-76.2 37.86,-118.34 39.66,-119.19 6.6,-0.45 32.13,60.06 34.11,109.89 -5.88,-8.74 -11.32,-32.66 -23.84,-32.89 -12.52,-0.22 -38.6,30.42 -49.93,42.19zm37.8 -48.04c0.8,0 1.51,0.32 2.15,0.96 0.63,0.63 0.94,1.34 0.94,2.14 0,0.76 -0.32,1.47 -0.97,2.11 -0.66,0.65 -1.37,0.97 -2.12,0.97 -0.75,0 -1.45,-0.32 -2.11,-0.98 -0.65,-0.64 -0.97,-1.35 -0.97,-2.1 0,-0.79 0.32,-1.5 0.95,-2.14 0.64,-0.64 1.35,-0.96 2.13,-0.96zm-9.26 -37.03l0 -6.19c0,-2.17 1.08,-3.93 3.24,-5.27 0.96,-0.6 1.94,-0.9 2.94,-0.9l6.17 0c2.19,0 3.95,1.08 5.29,3.24 0.58,0.96 0.88,1.94 0.88,2.93l0 13.9c0,0.66 0,1 -0.01,1.05 -0.03,0.12 -0.11,0.36 -0.25,0.7 0,0.11 -0.06,0.26 -0.15,0.46 0,0.03 -0.02,0.07 -0.06,0.14 -0.01,0.04 -0.03,0.1 -0.06,0.2 -0.03,0.09 -0.08,0.21 -0.12,0.34 -0.02,0.09 -0.05,0.17 -0.1,0.28 -0.01,0.02 -0.02,0.03 -0.02,0.04 -0.16,0.61 -0.85,2.11 -2.07,4.51 -0.53,1.06 -1.39,2.8 -2.55,5.21 -0.52,1.06 -0.78,1.89 -0.78,2.5l0 7.73 -6.17 0 0 -7.6c0,-0.47 0.03,-0.85 0.1,-1.13 0.05,-0.38 0.23,-1.08 0.55,-2.07 0.11,-0.37 0.72,-1.57 1.83,-3.61 1.24,-2.32 2.1,-4.04 2.6,-5.14 0.68,-1.6 1.03,-2.8 1.03,-3.61 0.04,-0.14 0.06,-1.59 0.06,-4.37l0 -3.6c0,-0.08 0,-0.4 0,-0.92 0,-0.38 0,-0.58 0,-0.61 0,-1.19 0,-1.82 -0.01,-1.91 -0.01,-0.09 -0.02,-0.41 -0.02,-0.93 0,-0.39 -0.16,-0.75 -0.48,-1.07 -0.33,-0.33 -0.68,-0.49 -1.07,-0.49l-3.05 0c-1.03,0 -1.54,0.52 -1.54,1.56l0 4.63 -6.18 0z"/>
 </g>
</svg>
