<?xml version="1.0" encoding="UTF-8"?>
<!DOCTYPE svg PUBLIC "-//W3C//DTD SVG 1.1//EN" "http://www.w3.org/Graphics/SVG/1.1/DTD/svg11.dtd">
<!-- Creator: CorelDRAW -->
<svg xmlns="http://www.w3.org/2000/svg" xml:space="preserve" width="250px" height="250px" version="1.1" style="shape-rendering:geometricPrecision; text-rendering:geometricPrecision; image-rendering:optimizeQuality; fill-rule:evenodd; clip-rule:evenodd"
viewBox="0 0 345.33 345.33"
 xmlns:xlink="http://www.w3.org/1999/xlink"
 xmlns:xodm="http://www.corel.com/coreldraw/odm/2003">
 <defs>
  <style type="text/css">
   <![CDATA[
    .fil0 {fill:none}
    .fil1 {fill:white}
   ]]>
  </style>
 </defs>
 <g id="Livello_x0020_1">
  <metadata id="CorelCorpID_0Corel-Layer"/>
  <rect class="fil0" width="345.33" height="345.33"/>
  <g id="_2809098905248">
   <path class="fil1" d="M176.18 6.93c-54.45,-1.53 -100.16,71.43 -102.1,162.97 -0.6,28.49 3.11,55.42 10.15,79.05 6.45,-50.61 18.15,-103.35 33.45,-143.94 3.13,-8.3 21.01,-54.54 26.37,-54.23 11.14,0.64 30.69,64.84 45.41,128.73 16.63,3.35 31.49,11.57 43.03,23.11 13.87,13.87 22.95,32.54 24.53,53.3 8.47,-23.69 13.6,-51.13 14.23,-80.49 1.94,-91.53 -40.63,-166.97 -95.07,-168.5z"/>
   <path class="fil1" d="M172.66 338.42c41.97,0 75.98,-34.01 75.98,-75.97 0,-41.97 -34.01,-75.97 -75.98,-75.97 -41.96,0 -75.97,34 -75.97,75.97 0,41.96 34.01,75.97 75.97,75.97zm35.91 -71.52c2.79,2.79 2.79,7.3 0,10.06 -2.79,2.76 -7.3,2.79 -10.06,0l-25.82 -25.82 -25.82 25.82c-2.79,2.79 -7.3,2.79 -10.06,0 -2.76,-2.79 -2.79,-7.3 0,-10.06l30.81 -30.86c2.79,-2.79 7.3,-2.79 10.06,0l30.89 30.86z"/>
  </g>
 </g>
</svg>
