<?xml version="1.0" encoding="UTF-8"?>
<!DOCTYPE svg PUBLIC "-//W3C//DTD SVG 1.1//EN" "http://www.w3.org/Graphics/SVG/1.1/DTD/svg11.dtd">
<!-- Creator: CorelDRAW -->
<svg xmlns="http://www.w3.org/2000/svg" xml:space="preserve" width="250px" height="250px" version="1.1" style="shape-rendering:geometricPrecision; text-rendering:geometricPrecision; image-rendering:optimizeQuality; fill-rule:evenodd; clip-rule:evenodd"
viewBox="0 0 82.35 82.35"
 xmlns:xlink="http://www.w3.org/1999/xlink"
 xmlns:xodm="http://www.corel.com/coreldraw/odm/2003">
 <defs>
  <style type="text/css">
   <![CDATA[
    .fil0 {fill:none}
    .fil1 {fill:white}
   ]]>
  </style>
 </defs>
 <g id="Livello_x0020_1">
  <metadata id="CorelCorpID_0Corel-Layer"/>
  <rect class="fil0" width="82.35" height="82.35"/>
  <g id="_2809098047264">
   <path class="fil1" d="M42.01 1.65c-12.98,-0.36 -23.88,17.04 -24.34,38.87 -0.15,6.79 0.74,13.21 2.42,18.85 1.53,-12.07 4.32,-24.65 7.97,-34.33 0.75,-1.98 5.01,-13 6.29,-12.93 2.58,0.15 7.03,14.52 10.5,29.27l3.85 0c0.19,-0.37 0.45,-0.7 0.74,-1 0.78,-0.78 1.86,-1.26 3.06,-1.26 1.19,0 2.27,0.48 3.06,1.26 0.78,0.78 1.26,1.87 1.26,3.06 0,2.33 -0.49,4.46 -1.32,6.4 -0.81,1.88 -1.93,3.58 -3.22,5.14 -0.93,1.11 -1.94,2.15 -2.99,3.12 -0.28,0.27 -0.57,0.53 -0.85,0.78 0.05,0.33 0.11,0.65 0.16,0.97 0.23,0.21 0.47,0.42 0.69,0.63 1.05,0.98 2.06,2.01 2.99,3.13 1.29,1.55 2.41,3.25 3.22,5.13 0.31,0.73 0.57,1.48 0.78,2.25 4.93,-7.1 8.16,-17.49 8.4,-29.16 0.47,-21.82 -9.68,-39.81 -22.67,-40.18zm-12.45 52.69c-2.02,2.5 -4.24,6.42 -6.78,12.05 0.93,1.94 1.98,3.72 3.12,5.32 0.22,-1.03 0.55,-2.02 0.95,-2.96 0.81,-1.89 1.93,-3.59 3.22,-5.14 0.93,-1.12 1.94,-2.15 2.99,-3.13 0.43,-0.4 0.87,-0.79 1.32,-1.19 -0.45,-0.39 -0.89,-0.79 -1.32,-1.19 -1.05,-0.97 -2.06,-2.01 -2.99,-3.12 -0.17,-0.21 -0.34,-0.42 -0.51,-0.64zm3.19 24.01c2.36,1.45 4.92,2.27 7.59,2.35 3.14,0.09 6.16,-0.87 8.94,-2.67 -0.23,-0.25 -0.42,-0.53 -0.58,-0.83l-15.04 0c-0.2,0.37 -0.46,0.71 -0.75,1 -0.05,0.05 -0.11,0.1 -0.16,0.15z"/>
   <path class="fil1" d="M52.5 41.18c1.25,0 2.26,1.01 2.26,2.26 0,4.09 -1.72,7.42 -4.06,10.23 -1.7,2.04 -3.81,3.9 -5.92,5.62 2.11,1.74 4.22,3.58 5.92,5.63 2.34,2.8 4.06,6.13 4.06,10.23 0,1.25 -1.01,2.26 -2.26,2.26 -1.25,0 -2.27,-1.01 -2.27,-2.26l-18.11 0c0,1.25 -1.02,2.26 -2.27,2.26 -1.25,0 -2.26,-1.01 -2.26,-2.26 0,-4.1 1.72,-7.42 4.06,-10.23 1.71,-2.05 3.81,-3.89 5.92,-5.63 -2.11,-1.73 -4.21,-3.58 -5.92,-5.62 -2.34,-2.81 -4.06,-6.14 -4.06,-10.23 0,-1.25 1.01,-2.26 2.26,-2.26 1.25,0 2.27,1.01 2.27,2.26l18.11 0c0,-1.25 1.02,-2.26 2.27,-2.26zm-4.85 27.17l-12.94 0c-0.58,0.74 -1.07,1.49 -1.46,2.27l15.87 0c-0.4,-0.78 -0.89,-1.53 -1.46,-2.27l-0.01 0zm-3.22 -3.4c-1.01,-0.92 -2.11,-1.82 -3.25,-2.76 -1.15,0.93 -2.25,1.84 -3.26,2.76l6.51 0zm-9.73 -14.72l12.94 0c0.58,-0.74 1.07,-1.49 1.46,-2.26l-15.86 0c0.4,0.77 0.89,1.52 1.46,2.26zm3.22 3.4c1.01,0.92 2.11,1.83 3.26,2.76 1.14,-0.93 2.24,-1.84 3.25,-2.76l-6.51 0z"/>
  </g>
 </g>
</svg>
