<?xml version="1.0" encoding="UTF-8"?>
<!DOCTYPE svg PUBLIC "-//W3C//DTD SVG 1.1//EN" "http://www.w3.org/Graphics/SVG/1.1/DTD/svg11.dtd">
<!-- Creator: CorelDRAW -->
<svg xmlns="http://www.w3.org/2000/svg" xml:space="preserve" width="250px" height="250px" version="1.1" style="shape-rendering:geometricPrecision; text-rendering:geometricPrecision; image-rendering:optimizeQuality; fill-rule:evenodd; clip-rule:evenodd"
viewBox="0 0 46.75 46.75"
 xmlns:xlink="http://www.w3.org/1999/xlink"
 xmlns:xodm="http://www.corel.com/coreldraw/odm/2003">
 <defs>
  <style type="text/css">
   <![CDATA[
    .fil0 {fill:none}
    .fil1 {fill:white}
    .fil2 {fill:white;fill-rule:nonzero}
   ]]>
  </style>
 </defs>
 <g id="Livello_x0020_1">
  <metadata id="CorelCorpID_0Corel-Layer"/>
  <rect class="fil0" width="46.75" height="46.75"/>
  <g id="_2809099806144">
   <path class="fil1" d="M23.85 0.94c-7.37,-0.21 -13.56,9.67 -13.82,22.06 -0.08,3.86 0.42,7.5 1.37,10.7 0.88,-6.85 2.46,-13.99 4.53,-19.48 0.42,-1.13 2.85,-7.39 3.57,-7.35 1.42,0.09 3.86,7.81 5.8,15.95l6.67 2.83c0.67,0.28 1.25,0.75 1.65,1.35 0.39,0.58 0.62,1.27 0.61,2.03l0 0c-0.01,2.49 -0.61,6.19 -2.58,9.54 -1.43,2.43 -3.57,4.68 -6.71,6.18 -0.5,0.24 -1.04,0.36 -1.57,0.36 -0.53,0 -1.06,-0.12 -1.56,-0.36 -3.14,-1.5 -5.28,-3.75 -6.71,-6.18 -0.53,-0.89 -0.95,-1.82 -1.3,-2.73 -0.28,0.58 -0.57,1.19 -0.87,1.85 2.35,4.86 5.91,8.01 9.97,8.12 7.37,0.21 13.56,-9.67 13.82,-22.06 0.26,-12.39 -5.5,-22.61 -12.87,-22.81z"/>
   <path class="fil2" d="M23.37 23.37c0.19,0 0.37,0.05 0.54,0.12l7.61 3.23c0.89,0.38 1.55,1.25 1.55,2.31 -0.02,4.01 -1.67,11.34 -8.63,14.67 -0.67,0.33 -1.46,0.33 -2.13,0 -6.97,-3.33 -8.61,-10.66 -8.63,-14.67 0,-1.06 0.66,-1.93 1.55,-2.31l7.6 -3.23c0.17,-0.07 0.35,-0.12 0.54,-0.12zm0 2.7l0 15.28c5.58,-2.7 7.07,-8.68 7.11,-12.26l-7.11 -3.01 0 0 0 -0.01z"/>
  </g>
 </g>
</svg>
