<?xml version="1.0" encoding="UTF-8"?>
<!DOCTYPE svg PUBLIC "-//W3C//DTD SVG 1.1//EN" "http://www.w3.org/Graphics/SVG/1.1/DTD/svg11.dtd">
<!-- Creator: CorelDRAW -->
<svg xmlns="http://www.w3.org/2000/svg" xml:space="preserve" width="591px" height="591px" version="1.1" style="shape-rendering:geometricPrecision; text-rendering:geometricPrecision; image-rendering:optimizeQuality; fill-rule:evenodd; clip-rule:evenodd"
viewBox="0 0 816.35 816.35"
 xmlns:xlink="http://www.w3.org/1999/xlink"
 xmlns:xodm="http://www.corel.com/coreldraw/odm/2003">
 <defs>
  <style type="text/css">
   <![CDATA[
    .fil0 {fill:none}
    .fil1 {fill:white}
    .fil2 {fill:white;fill-rule:nonzero}
   ]]>
  </style>
 </defs>
 <g id="Livello_x0020_1">
  <metadata id="CorelCorpID_0Corel-Layer"/>
  <rect class="fil0" width="816.35" height="816.35"/>
  <g id="_2809094838576">
   <path class="fil1" d="M416.48 16.38c-128.71,-3.61 -236.77,168.87 -241.35,385.26 -1.43,67.35 7.34,131.02 23.98,186.87 15.26,-119.62 42.91,-244.3 79.08,-340.28 7.39,-19.61 49.68,-128.92 62.34,-128.19 24.31,1.4 65.55,130.78 99.11,269.45 5.31,1.58 10.2,4.2 14.44,7.65 7.19,5.86 12.42,14.15 14.4,23.81l0.01 0 7.51 36.21c1.95,1.02 3.88,2.08 5.77,3.18 1.87,1.08 3.74,2.23 5.61,3.45l35.1 -11.65c9.37,-3.12 19.16,-2.75 27.8,0.54 8.62,3.28 16.2,9.52 21.15,18.13l19.75 34.21c4.92,8.56 6.51,18.2 5.03,27.33 -1.49,9.13 -6.05,17.77 -13.43,24.33l0.04 0.04 -27.65 24.59c0.11,2.49 0.17,4.64 0.17,6.47 0,1.86 -0.07,4.03 -0.19,6.45l27.74 24.67c0.51,0.46 1,0.94 1.45,1.43 4.93,4.83 8.44,10.65 10.45,16.88 27.62,-62.69 44.67,-139.34 46.44,-222.49 4.58,-216.39 -96.04,-394.73 -224.75,-398.34zm-150.85 706.4c37.26,47.25 83.57,75.77 134.24,77.19 52.6,1.48 101.76,-26.46 141.8,-74.79 -6.23,0.92 -12.77,0.42 -19.13,-1.7l-35.12 -11.66c-1.82,1.17 -3.64,2.28 -5.47,3.34 -1.92,1.11 -3.87,2.19 -5.86,3.22 -0.63,3.04 -7.5,36.29 -7.46,36.3 -2,9.62 -7.25,17.88 -14.45,23.73 -7.24,5.9 -16.39,9.37 -26.15,9.37l-39.49 0c-9.79,0 -18.95,-3.48 -26.18,-9.37 -7.19,-5.86 -12.42,-14.15 -14.4,-23.81l-0.01 0 -7.45 -36.16c-1.91,-1 -3.8,-2.04 -5.65,-3.11 -1.89,-1.1 -3.77,-2.25 -5.65,-3.46l-35.37 11.69c-0.75,0.24 -1.5,0.44 -2.25,0.6 -8.68,2.36 -17.6,1.81 -25.55,-1.22l-0.4 -0.16z"/>
   <path class="fil2" d="M367.75 425.01c1.98,-9.77 10.63,-16.83 20.66,-16.83l39.49 0c10.04,0 18.69,7.06 20.67,16.83l9.57 46.22c9.31,3.97 18.03,9.05 25.95,15.06l44.77 -14.86c9.51,-3.17 19.94,0.79 24.96,9.51l19.74 34.2c5.02,8.72 3.24,19.68 -4.29,26.35l-35.2 31.3c0.6,4.88 0.86,9.9 0.86,14.99 0,5.08 -0.33,10.1 -0.86,14.98l35.26 31.37c7.53,6.67 9.25,17.69 4.3,26.34l-19.75 34.21c-5.02,8.65 -15.45,12.67 -24.96,9.5l-44.76 -14.85c-7.99,6.01 -16.71,11.02 -25.95,15.05l-9.51 46.16c-2.05,9.83 -10.7,16.83 -20.67,16.83l-39.48 0c-10.04,0 -18.69,-7.06 -20.67,-16.83l-9.51 -46.16c-9.31,-3.96 -17.96,-9.04 -25.95,-15.05l-44.96 14.85c-9.51,3.17 -19.94,-0.79 -24.96,-9.5l-19.74 -34.21c-5.02,-8.71 -3.24,-19.67 4.29,-26.34l35.26 -31.37c-0.6,-4.88 -0.86,-9.9 -0.86,-14.98 0,-5.09 0.33,-10.11 0.86,-14.99l-35.26 -31.37c-7.53,-6.67 -9.25,-17.69 -4.29,-26.34l19.74 -34.21c5.02,-8.71 15.45,-12.67 24.96,-9.5l44.76 14.85c7.99,-6.01 16.71,-11.02 25.95,-15.05l9.58 -46.16zm40.41 215.59c29.18,-0.13 52.75,-23.84 52.62,-53.02 -0.13,-29.19 -23.83,-52.76 -53.02,-52.63 -29.18,0.13 -52.76,23.84 -52.62,53.02 0.13,29.19 23.83,52.76 53.02,52.63z"/>
  </g>
 </g>
</svg>
