<?xml version="1.0" encoding="UTF-8"?>
<!DOCTYPE svg PUBLIC "-//W3C//DTD SVG 1.1//EN" "http://www.w3.org/Graphics/SVG/1.1/DTD/svg11.dtd">
<!-- Creator: CorelDRAW -->
<svg xmlns="http://www.w3.org/2000/svg" xml:space="preserve" width="250px" height="250px" version="1.1" style="shape-rendering:geometricPrecision; text-rendering:geometricPrecision; image-rendering:optimizeQuality; fill-rule:evenodd; clip-rule:evenodd"
viewBox="0 0 82.35 82.35"
 xmlns:xlink="http://www.w3.org/1999/xlink"
 xmlns:xodm="http://www.corel.com/coreldraw/odm/2003">
 <defs>
  <style type="text/css">
   <![CDATA[
    .fil0 {fill:none}
    .fil2 {fill:white}
    .fil1 {fill:white;fill-rule:nonzero}
   ]]>
  </style>
 </defs>
 <g id="Livello_x0020_1">
  <metadata id="CorelCorpID_0Corel-Layer"/>
  <rect class="fil0" width="82.35" height="82.35"/>
  <g id="_2809319085696">
   <path class="fil1" d="M5.54 75.93c-0.72,0 -1.37,-0.19 -1.92,-0.51 -0.61,-0.35 -1.11,-0.87 -1.45,-1.47 -0.34,-0.59 -0.52,-1.28 -0.52,-1.98 0,-0.64 0.16,-1.3 0.51,-1.91l35.63 -61.7 0 0c0.36,-0.63 0.85,-1.1 1.4,-1.42 0.61,-0.35 1.3,-0.52 1.98,-0.52 0.69,0.01 1.37,0.19 1.98,0.53 0.56,0.33 1.05,0.8 1.4,1.41l35.64 61.7 0 0c0.35,0.62 0.51,1.28 0.51,1.91 0,0.71 -0.2,1.4 -0.55,2 -0.35,0.59 -0.85,1.1 -1.46,1.45 -0.55,0.32 -1.2,0.51 -1.89,0.51l-71.26 0zm-1.76 -0.79c0.5,0.29 1.1,0.46 1.76,0.46l71.26 0c0.63,0 1.22,-0.17 1.73,-0.46 0.56,-0.32 1.02,-0.79 1.34,-1.34 0.32,-0.55 0.51,-1.18 0.51,-1.83 0,-0.58 -0.15,-1.18 -0.48,-1.75l0 0 -35.63 -61.7c-0.32,-0.56 -0.77,-0.99 -1.29,-1.28 -0.55,-0.32 -1.18,-0.49 -1.81,-0.49 -0.63,-0.01 -1.26,0.15 -1.82,0.47 -0.5,0.29 -0.94,0.73 -1.28,1.3l0 0 -35.63 61.7c-0.32,0.56 -0.47,1.16 -0.47,1.75 0,0.64 0.18,1.27 0.49,1.82 0.31,0.55 0.76,1.03 1.32,1.35z"/>
   <path class="fil2" d="M5.54 74.35c-1.83,0 -2.87,-2.01 -2.03,-3.51l35.65 -61.7c0.93,-1.6 3.17,-1.46 4.04,0l35.62 61.7c0.92,1.56 -0.29,3.51 -2.02,3.51l-71.26 0zm35.66 -59.76l-31.58 54.98 62.62 0 -31.04 -54.98z"/>
   <path class="fil2" d="M40.03 50.84c-0.79,0.36 -1.39,1.29 -1.3,2.16l-0.95 0.59c-2.31,-3.13 -6.66,-4.09 -10.11,-2.1 -1.97,1.14 -3.26,3.01 -3.7,5.08 -0.22,0.61 -0.73,0.59 -0.76,0.04 0.09,-3.6 1.99,-7.06 5.33,-8.99 0.62,-0.36 1.26,-0.64 1.91,-0.87 -0.13,-0.67 -0.23,-1.32 -0.23,-2.03 0,-3.86 2.05,-7.24 5.12,-9.11 0.5,-0.25 0.78,0.18 0.35,0.67 -1.57,1.42 -2.55,3.47 -2.55,5.75 0,3.98 3.01,7.26 6.88,7.7l0.01 1.11z"/>
   <path class="fil2" d="M39.61 54.66c0.37,0.29 0.84,0.47 1.36,0.47 0.51,0 0.97,-0.17 1.35,-0.46l0.86 0.51c-1.56,3.57 -0.22,7.81 3.23,9.81 1.98,1.13 4.25,1.31 6.26,0.66 0.64,-0.12 0.88,0.33 0.41,0.64 -3.16,1.72 -7.11,1.8 -10.46,-0.12 -0.61,-0.36 -1.18,-0.77 -1.7,-1.22 -0.52,0.45 -1.03,0.86 -1.65,1.21 -3.34,1.93 -7.3,1.85 -10.46,0.13 -0.47,-0.31 -0.23,-0.76 0.41,-0.64 2.02,0.65 4.28,0.47 6.26,-0.67 3.45,-1.99 4.79,-6.23 3.23,-9.8l0.9 -0.52z"/>
   <path class="fil2" d="M43.2 53.07c0.01,-0.06 0.01,-0.12 0.01,-0.18 0,-0.94 -0.57,-1.75 -1.38,-2.08l0.01 -1.12c3.87,-0.43 6.88,-3.71 6.88,-7.69 0,-2.28 -0.98,-4.33 -2.55,-5.75 -0.42,-0.49 -0.15,-0.92 0.35,-0.67 3.07,1.87 5.12,5.25 5.12,9.11 0,0.71 -0.07,1.4 -0.2,2.08 0.65,0.22 1.26,0.46 1.88,0.82 3.34,1.93 5.25,5.39 5.33,8.98 -0.03,0.56 -0.54,0.58 -0.76,-0.03 -0.44,-2.07 -1.73,-3.94 -3.7,-5.08 -3.45,-1.99 -7.8,-1.03 -10.11,2.1l-0.88 -0.49z"/>
   <path class="fil2" d="M35.22 46.58c-0.42,-0.55 -0.77,-1.16 -1.04,-1.82 1.84,-1.53 4.21,-2.47 6.79,-2.47 2.57,0 4.92,0.92 6.75,2.45 -0.28,0.64 -0.64,1.23 -1.08,1.77 -1.5,-1.35 -3.49,-2.16 -5.67,-2.16 -2.22,0 -4.23,0.84 -5.75,2.23z"/>
   <path class="fil2" d="M30.56 51.01c-0.1,0.6 -0.16,1.21 -0.16,1.84 0,4.55 2.89,8.42 6.92,9.91 0.42,-0.55 0.76,-1.15 1.01,-1.78 -3.42,-1.11 -5.89,-4.32 -5.89,-8.11 0,-0.62 0.07,-1.24 0.2,-1.82 -0.69,-0.1 -1.38,-0.12 -2.08,-0.04z"/>
   <path class="fil2" d="M44.57 62.77c4.06,-1.47 6.96,-5.36 6.96,-9.92 0,-0.64 -0.05,-1.27 -0.16,-1.88 -0.69,-0.08 -1.39,-0.06 -2.07,0.04 0.13,0.6 0.2,1.22 0.2,1.86 0,3.8 -2.49,7.02 -5.94,8.12 0.26,0.63 0.6,1.23 1.01,1.78z"/>
  </g>
 </g>
</svg>
