<?xml version="1.0" encoding="UTF-8"?>
<!DOCTYPE svg PUBLIC "-//W3C//DTD SVG 1.1//EN" "http://www.w3.org/Graphics/SVG/1.1/DTD/svg11.dtd">
<!-- Creator: CorelDRAW -->
<svg xmlns="http://www.w3.org/2000/svg" xml:space="preserve" width="591px" height="591px" version="1.1" style="shape-rendering:geometricPrecision; text-rendering:geometricPrecision; image-rendering:optimizeQuality; fill-rule:evenodd; clip-rule:evenodd"
viewBox="0 0 110.52 110.52"
 xmlns:xlink="http://www.w3.org/1999/xlink"
 xmlns:xodm="http://www.corel.com/coreldraw/odm/2003">
 <defs>
  <style type="text/css">
   <![CDATA[
    .fil0 {fill:none}
    .fil1 {fill:white}
   ]]>
  </style>
 </defs>
 <g id="Livello_x0020_1">
  <metadata id="CorelCorpID_0Corel-Layer"/>
  <rect class="fil0" width="110.52" height="110.52"/>
  <path class="fil1" d="M56.38 2.22c-17.42,-0.49 -32.05,22.86 -32.67,52.15 -0.19,9.12 0.99,17.74 3.24,25.3 2.07,-16.19 5.81,-33.07 10.71,-46.06 1,-2.66 6.73,-17.46 8.44,-17.36 6.31,0.36 21.05,64.41 20.73,78.91 -14.12,-27.44 -20.58,-40.71 -36.26,-6.07 5.54,11.51 13.98,18.94 23.56,19.21 17.43,0.49 32.06,-22.86 32.68,-52.16 0.62,-29.29 -13,-53.43 -30.43,-53.92z"/>
 </g>
</svg>
