<?xml version="1.0" encoding="UTF-8"?>
<!DOCTYPE svg PUBLIC "-//W3C//DTD SVG 1.1//EN" "http://www.w3.org/Graphics/SVG/1.1/DTD/svg11.dtd">
<!-- Creator: CorelDRAW -->
<svg xmlns="http://www.w3.org/2000/svg" xml:space="preserve" width="591px" height="591px" version="1.1" style="shape-rendering:geometricPrecision; text-rendering:geometricPrecision; image-rendering:optimizeQuality; fill-rule:evenodd; clip-rule:evenodd"
viewBox="0 0 816.35 816.35"
 xmlns:xlink="http://www.w3.org/1999/xlink"
 xmlns:xodm="http://www.corel.com/coreldraw/odm/2003">
 <defs>
  <style type="text/css">
   <![CDATA[
    .fil0 {fill:none}
    .fil1 {fill:white}
    .fil2 {fill:white;fill-rule:nonzero}
   ]]>
  </style>
 </defs>
 <g id="Livello_x0020_1">
  <metadata id="CorelCorpID_0Corel-Layer"/>
  <rect class="fil0" width="816.35" height="816.35"/>
  <g id="_2809319326016">
   <path class="fil1" d="M371.09 629.93l-96.97 -160.55c50.54,-119.15 80.35,-274.56 96.97,-453.05 16.62,178.49 46.44,333.9 96.97,453.05l-96.97 160.55z"/>
   <path class="fil1" d="M111.98 800.03c-58.69,-168.25 92.62,-217.85 139.89,-297.27 41.69,50.73 75.17,107.62 103.33,168.5 -106.45,-0.22 -197.67,44.61 -243.22,128.77z"/>
   <path class="fil1" d="M388.55 675.73c27.88,-54.5 60.04,-111.97 99.53,-174.02 52.13,93.59 131.82,123.76 229.62,135.11 -72.62,134.6 -257.22,24.93 -329.15,38.91z"/>
   <path class="fil2" d="M372.78 325.56c64.31,0 122.58,24.89 164.8,65.12 42.38,40.38 68.59,96.18 68.59,157.83 0,61.65 -26.21,117.45 -68.59,157.83 -42.22,40.24 -100.49,65.12 -164.8,65.12 -64.31,0 -122.58,-24.88 -164.81,-65.12 -42.37,-40.38 -68.58,-96.18 -68.58,-157.83 0,-61.65 26.21,-117.45 68.58,-157.83 42.23,-40.23 100.5,-65.12 164.81,-65.12zm148.86 81.88c-38.06,-36.25 -90.68,-58.68 -148.86,-58.68 -58.18,0 -110.81,22.43 -148.86,58.68 -37.89,36.12 -61.33,85.99 -61.33,141.07 0,55.08 23.44,104.96 61.33,141.07 38.05,36.26 90.68,58.69 148.86,58.69 58.18,0 110.81,-22.43 148.85,-58.69 37.9,-36.11 61.34,-85.99 61.34,-141.07 0,-55.08 -23.44,-104.95 -61.33,-141.07z"/>
  </g>
 </g>
</svg>
