<?xml version="1.0" encoding="UTF-8"?>
<!DOCTYPE svg PUBLIC "-//W3C//DTD SVG 1.1//EN" "http://www.w3.org/Graphics/SVG/1.1/DTD/svg11.dtd">
<!-- Creator: CorelDRAW -->
<svg xmlns="http://www.w3.org/2000/svg" xml:space="preserve" width="250px" height="250px" version="1.1" style="shape-rendering:geometricPrecision; text-rendering:geometricPrecision; image-rendering:optimizeQuality; fill-rule:evenodd; clip-rule:evenodd"
viewBox="0 0 82.35 82.35"
 xmlns:xlink="http://www.w3.org/1999/xlink"
 xmlns:xodm="http://www.corel.com/coreldraw/odm/2003">
 <defs>
  <style type="text/css">
   <![CDATA[
    .fil0 {fill:none}
    .fil1 {fill:white}
   ]]>
  </style>
 </defs>
 <g id="Livello_x0020_1">
  <metadata id="CorelCorpID_0Corel-Layer"/>
  <rect class="fil0" width="82.35" height="82.35"/>
  <g id="_2809320819440">
   <g>
    <path class="fil1" d="M40.83 71.79c-0.05,-3.46 0.06,-7.02 0.07,-10.5 0,-1.73 0.11,-3.34 -0.27,-4.98 -0.33,-1.42 -0.66,-2.88 -1.04,-4.26 -1.33,-4.91 -2.79,-6.96 -4.77,-11.08 -0.25,-0.53 -0.14,-0.36 -0.74,-0.58 -0.35,-0.12 -0.62,-0.24 -0.93,-0.38 -2.93,-1.3 -5.59,-3.43 -7.46,-5.65 -4.5,-5.36 -6.09,-13.6 -3.32,-20.37l1.64 -3.44c-0.02,0.02 -4.55,1.99 -5.17,2.34 -0.75,0.43 -1.8,0.9 -2.4,1.36 -0.45,0.34 -0.91,1.95 -1.12,2.64 -1.25,4.29 -0.48,8.92 1.41,12.41 1.73,3.2 4.05,5.78 7.18,7.86 2.3,1.51 4.91,2.72 7.64,3.63 1.66,0.56 1.45,0.03 2.24,1.47 -2.71,-0.45 -6.62,-2 -8.71,-3.22 -2.64,-1.54 -4.69,-3.13 -6.72,-5.27 -1.75,-1.85 -3.4,-4.52 -4.35,-7.65 -1.17,-3.85 -0.71,-6.77 0.27,-10.41 -0.38,0.17 -0.75,0.47 -1.11,0.76l-3.08 2.61c-0.3,0.27 -1.72,1.74 -1.83,2.03 -0.23,0.59 0.15,2.7 0.29,3.37 0.46,2.08 1.23,3.85 2.22,5.4 0.91,1.42 2.18,3.15 3.43,4.19l2.11 1.75c4.67,3.49 10.18,5.73 16.01,6.84 1.08,0.21 1.74,0.05 2.16,0.69 0.12,0.17 0.24,0.37 0.32,0.54 -2.58,-0.06 -7.65,-1.47 -9.91,-2.33 -5.15,-1.95 -7.74,-3.6 -11.63,-6.85 -1.91,-1.6 -4.11,-4.55 -5.11,-7.08 -0.62,-1.55 -1.07,-3.05 -1.25,-4.86 -0.49,0.48 -1.16,1.5 -1.58,2.2 -0.45,0.76 -0.86,1.52 -1.28,2.38 -0.69,1.38 -0.97,1.78 -0.47,2.51 2.49,3.67 6.05,6.37 9.85,8.54 5.38,3.09 13.32,5.39 19.78,6.02 1.24,0.12 2.11,-0.2 2.53,1.15 -2.86,-0.02 -7.7,-0.94 -10.38,-1.62 -5.87,-1.49 -11.87,-3.85 -16.61,-7.26 -2.33,-1.68 -3.53,-2.93 -5.38,-5.09 -0.18,-0.2 -0.44,-0.59 -0.63,-0.76 -0.52,0.75 -1,4.7 -1.08,5.94 1.05,0.43 2.39,1.35 3.54,1.93 9.18,4.66 20.51,6.93 30.86,7.44l0.3 0.8c-6.41,-0.33 -13.2,-1.19 -19.13,-2.8 -4.6,-1.24 -7.91,-2.46 -12.11,-4.35 -1.02,-0.46 -2.44,-1.48 -3.44,-1.82 -0.16,1.49 0.6,4.53 0.93,5.95 2.62,0.35 5.39,0.95 8.1,1.36 5.64,0.86 11.32,1.42 17.02,1.79 2.96,0.19 6,0.19 8.92,0.4l0.22 0.67c-7.08,0.17 -22.78,-1.29 -30.06,-2.53 -1.2,-0.21 -2.65,-0.54 -3.83,-0.65 0.1,0.68 1.26,3.32 1.64,3.66l32.53 0.08c0.13,0.35 0.25,0.37 0.16,0.71l-32.19 0.07c0.22,0.48 1.7,2.78 1.95,2.89 0.31,0.13 3.48,-0.45 4.1,-0.54 2.8,-0.4 5.64,-0.69 8.47,-0.95 5.89,-0.56 12,-0.91 17.96,-0.96l0.23 0.73c-5.24,0.13 -10.35,0.35 -15.52,0.82 -2.5,0.23 -4.92,0.54 -7.37,0.78 -2.37,0.23 -4.79,0.72 -7.13,1.01 0.39,0.7 1.97,2.31 2.54,2.81 0.89,-0.24 2.08,-0.71 3.01,-1.03 3.19,-1.09 6.45,-1.75 9.82,-2.38 4.42,-0.82 10.21,-1.46 14.81,-1.46 0.18,0.22 0.19,0.32 0.28,0.63 -1.11,0.16 -2.66,0.14 -3.84,0.22 -6.45,0.44 -14.15,1.67 -20.24,3.71 -0.92,0.31 -2.08,0.8 -2.95,1 0.12,0.25 0.29,0.35 0.55,0.55 0.53,0.42 1.02,0.95 1.61,1.28 1.74,-0.82 3.55,-1.77 5.53,-2.45 4.31,-1.49 8.37,-2.49 12.95,-3.12 1.16,-0.16 2.4,-0.26 3.59,-0.36 0.65,-0.05 1.26,-0.09 1.91,-0.13 0.43,-0.03 1.16,-0.3 1.23,0.31 0.02,0.23 -0.02,0.22 -0.07,0.39l-2.37 0.15 0.11 0.7 1.8 -0.12c-0.26,0.79 -0.29,0.68 -0.76,0.92 0.67,0.8 1.36,1.97 1.18,3.55 -0.07,0.67 -0.29,1.2 -0.6,1.75 -0.46,0.81 0.01,0.81 0.02,1.7 0.02,1.74 -1.39,5.74 -1.7,7.77 0.67,0.18 1.62,0.7 2.32,1.03 0.66,0.33 1.64,0.87 2.3,1.1z"/>
    <path class="fil1" d="M41.52 71.8l4.6 -2.19c-0.27,-2.03 -1.7,-5.95 -1.67,-7.72 0,-0.45 0.07,-0.59 0.19,-0.96 0.3,-0.92 -2.32,-2.65 0.4,-6.04 -0.46,-0.24 -0.5,-0.14 -0.76,-0.92l1.81 0.12 0.11 -0.7 -2.37 -0.15c-0.34,-1.06 0.54,-0.79 3.06,-0.57 6.23,0.54 10.64,1.45 16.54,3.48 2.01,0.69 3.77,1.62 5.53,2.45 0.65,-0.35 1.34,-0.96 1.91,-1.49 0.27,-0.26 0.11,-0.05 0.26,-0.34 -0.79,-0.18 -2.08,-0.7 -2.95,-1 -3.17,-1.06 -6.29,-1.73 -9.61,-2.38 -4.78,-0.94 -9.44,-1.26 -14.42,-1.52 -0.04,-0.28 0.08,-0.48 0.23,-0.67 8.69,0.04 19,1.68 27.19,4.74 0.44,0.17 0.47,0.15 0.74,-0.13 0.75,-0.77 1.71,-1.58 2.25,-2.54 -4.87,-0.67 -9.52,-1.33 -14.47,-1.78 -5.2,-0.48 -10.31,-0.7 -15.56,-0.83l0.24 -0.73c5.22,0.04 10.6,0.33 15.76,0.76 2.54,0.21 5.01,0.45 7.51,0.76 1.26,0.15 6.54,1.03 7.26,0.96 0.3,-0.27 1.69,-2.34 1.94,-2.92l-32.19 -0.07c-0.08,-0.34 0.04,-0.35 0.16,-0.71l32.53 -0.08c0.38,-0.33 1.55,-2.98 1.64,-3.66 -1.14,0.08 -2.65,0.45 -3.85,0.65 -9.49,1.6 -20.5,2.47 -30.03,2.54l0.21 -0.68c2.95,-0.19 5.95,-0.2 8.93,-0.4 7.05,-0.46 14.11,-1.19 21.05,-2.43 1.29,-0.23 2.81,-0.56 4.07,-0.72 0.47,-2.07 0.82,-3.69 0.94,-5.95 -0.43,0.16 -1.36,0.71 -1.79,0.95 -0.53,0.31 -1.27,0.7 -1.81,0.93 -4.68,2.03 -6.78,2.88 -12.05,4.32 -5.82,1.59 -12.72,2.45 -19.05,2.77l0.31 -0.8c9.5,-0.45 18.49,-2.28 27.1,-5.7 1.72,-0.69 5.98,-2.63 7.26,-3.75 0.04,-1.05 -0.56,-5.19 -1.04,-5.86 -0.54,0.49 -0.81,1.05 -1.32,1.59 -1.86,1.97 -2.48,2.6 -4.71,4.24 -6.08,4.47 -14.01,7.04 -21.58,8.29 -1.45,0.23 -3.95,0.62 -5.4,0.61 0.15,-0.48 0.27,-0.91 0.85,-0.99 0.53,-0.07 1.15,-0.11 1.68,-0.16 1.06,-0.1 2.16,-0.28 3.19,-0.46 6.89,-1.25 13.1,-3.28 18.86,-6.94 2.92,-1.86 5.64,-4.27 7.58,-7.16 0.51,-0.74 0.22,-1.13 -0.46,-2.52 -0.76,-1.54 -1.67,-3.4 -2.86,-4.57 -0.29,2.92 -1.31,5.45 -2.85,7.83 -0.21,0.31 -0.46,0.6 -0.65,0.87 -0.47,0.68 -0.91,1.1 -1.37,1.68 -0.43,0.55 -0.96,1.11 -1.49,1.56 -3.89,3.27 -6.49,4.89 -11.63,6.85 -2.32,0.89 -7.27,2.24 -9.91,2.34 0.54,-1.28 1.18,-0.99 2.47,-1.24 1.12,-0.21 2.08,-0.43 3.15,-0.71 3.82,-0.99 7.42,-2.6 10.67,-4.57 1.66,-1 3.04,-2.24 4.31,-3.31 1.33,-1.13 2.44,-2.72 3.42,-4.19 0.96,-1.44 1.8,-3.43 2.22,-5.4 0.14,-0.66 0.52,-2.78 0.29,-3.37 -0.11,-0.3 -1.51,-1.76 -1.82,-2.03 -0.67,-0.58 -1.26,-1.22 -2,-1.77 -0.59,-0.43 -1.55,-1.29 -2.19,-1.6 0.95,3.63 1.45,6.57 0.26,10.41 -0.47,1.53 -1.08,2.96 -1.8,4.2 -0.19,0.31 -0.36,0.57 -0.55,0.87 -0.59,0.95 -1.25,1.78 -2,2.58 -0.48,0.51 -0.91,1.05 -1.46,1.48 -2.36,1.86 -2.14,1.94 -5.25,3.79 -2.01,1.19 -6.09,2.8 -8.71,3.22 0.79,-1.44 0.56,-0.91 2.23,-1.47 5.34,-1.79 10.15,-4.62 13.4,-9.15 2.98,-4.15 4.4,-9.42 2.83,-14.75 -0.91,-3.09 -0.94,-2.53 -3.51,-4 -0.63,-0.35 -5.16,-2.32 -5.17,-2.34l1.63 3.44c0.54,1.31 0.88,2.69 1.12,4.16 0.53,3.18 0.23,6.49 -0.7,9.38 -1.88,5.87 -6.34,10.75 -12.13,12.86 -0.59,0.22 -0.49,0.06 -0.74,0.58 -1.93,4 -3.52,6.37 -4.77,11.08 -0.37,1.4 -0.69,2.82 -1.03,4.25 -0.42,1.8 -0.29,3.09 -0.28,4.99 0.02,3.49 0.12,7.03 0.07,10.51z"/>
    <path class="fil1" d="M49.13 56.8c0.19,-0.81 0.65,-1.62 0.61,-2.52 -0.39,-0.22 -0.82,-0.29 -1.29,-0.31 -0.01,0.84 -0.23,2.09 -0.6,2.72 -0.26,-0.82 -0.46,-2.07 -1.04,-2.48 -3.09,1.03 -3.21,5.43 -1.21,6.69 0.83,-0.3 1.43,-1.13 2.04,-1.53 -0.14,1.07 -0.43,1.51 -0.73,2.36 1.57,0.42 2.76,0.14 3.82,-0.69 0.79,-0.63 1.62,-1.79 1.46,-3.39 -0.98,0.16 -1.47,0.14 -2.45,0.01l0.54 -0.42c0.79,-0.43 0.83,-0.48 1.5,-1.03 -0.13,-0.44 -0.49,-0.83 -0.73,-1.07 -0.32,0.42 -1.42,1.48 -1.92,1.66z"/>
    <path class="fil1" d="M36.76 60.9c1.07,-0.62 1.55,-2.47 1.25,-3.91 -0.27,-1.26 -1.39,-2.43 -2.47,-2.78 -0.59,0.43 -0.74,1.66 -1.04,2.48 -0.38,-0.67 -0.59,-1.84 -0.59,-2.72 -0.46,0.02 -0.91,0.09 -1.3,0.31 -0.05,0.85 0.44,1.74 0.61,2.52 -0.5,-0.18 -1.59,-1.26 -1.92,-1.67 -0.23,0.24 -0.59,0.65 -0.72,1.08 0.75,0.63 0.75,0.6 1.56,1.07l0.4 0.3c0.01,-0.02 0.03,0.03 0.05,0.05 -0.73,0.25 -1.69,0.15 -2.43,0.01 -0.28,2.48 2.12,4.97 5.28,4.09 -0.27,-0.87 -0.58,-1.25 -0.73,-2.36 0.64,0.4 1.17,1.2 2.05,1.53z"/>
    <path class="fil1" d="M46.93 69.22l4.57 -2.16 -2.62 -4.77c-0.97,0.07 -1.25,-0.01 -2.11,-0.19 -0.48,0.57 -0.75,0.76 -1.72,0.48l1.88 6.64z"/>
    <path class="fil1" d="M37.3 62.58c-1.08,0.32 -1.17,0.15 -1.71,-0.48 -0.87,0.19 -1.15,0.26 -2.1,0.2l-2.6 4.78 4.59 2.12 1.82 -6.62z"/>
    <path class="fil1" d="M59.18 57.25c1.26,0.54 2.34,1.03 3.45,1.63l3.18 1.88 2.2 -1.48c-4.49,-2.49 -10.49,-4.32 -16.32,-5.25l-0.08 0.16c-0.01,0.02 -0.02,0.05 -0.03,0.08 -0.01,0.01 -0.08,0.22 -0.08,0.23 -0.05,0.16 -0.07,0.21 -0.11,0.38 2.56,0.46 5.55,1.42 7.79,2.37z"/>
    <path class="fil1" d="M14.34 59.28c0.46,0.44 1.21,0.84 1.77,1.22 0.48,0.33 0.51,0.29 0.95,-0.01 1.47,-1.02 3.14,-1.89 4.84,-2.69 2.61,-1.21 6.02,-2.36 9.06,-2.92l-0.26 -0.77c0,-0.04 -0.02,-0.05 -0.04,-0.08 -5.1,0.86 -11.97,2.7 -16.32,5.25z"/>
    <path class="fil1" d="M52.64 58.07c-0.09,0.79 -0.19,1.03 -0.4,1.68 1.58,1.11 1.47,1.14 2.74,2.21 0.46,0.4 2.05,2.2 2.28,2.7 0.58,-0.05 3.33,-1.13 3.82,-1.44 -1.36,-1.59 -6.5,-4.78 -8.44,-5.15z"/>
    <path class="fil1" d="M25.1 64.66c0.29,-0.68 0.66,-0.89 1.12,-1.42 1.36,-1.54 2.11,-2.28 3.9,-3.48 -0.21,-0.66 -0.31,-0.89 -0.4,-1.69 -1.13,0.23 -3.74,1.68 -4.63,2.22 -1.23,0.74 -3.11,2.08 -3.82,2.93 0.48,0.3 3.25,1.39 3.83,1.44z"/>
    <path class="fil1" d="M20.01 62.67c0.28,-0.14 0.66,-0.52 0.98,-0.79 0.83,-0.71 1.23,-0.93 2.11,-1.56 1.15,-0.81 2.22,-1.36 3.48,-2 0.66,-0.35 1.91,-0.75 2.45,-1.1 -0.08,-0.27 -0.17,-0.52 -0.17,-0.91 -1.72,0.36 -4.52,1.42 -6,2.15 -1.34,0.65 -4.2,2 -5.19,2.97l2.34 1.24z"/>
    <path class="fil1" d="M62.34 62.67l2.32 -1.28c-0.56,-0.53 -1.7,-1.13 -2.46,-1.57 -2.16,-1.26 -6.28,-3 -8.71,-3.51 0.01,0.39 -0.08,0.64 -0.16,0.91 0.65,0.43 3.56,1.39 5.98,3.15 0.39,0.28 0.79,0.51 1.09,0.75l1.94 1.55z"/>
    <path class="fil1" d="M41.17 56.47c0.67,-2.19 0.98,-4.13 1.83,-6.72 0.19,-0.58 0.66,-1.68 0.73,-2.14 -0.55,0.64 -0.91,0.99 -1.4,1.88 -0.4,0.73 -0.87,1.58 -1.09,2.39 -0.22,-0.22 -0.96,-1.94 -1.18,-2.33 -0.23,-0.41 -0.36,-0.68 -0.67,-1.05 -0.28,-0.34 -0.52,-0.61 -0.76,-0.89 0,0.01 2.07,6.19 2.54,8.86z"/>
    <path class="fil1" d="M41.17 50.88c0.43,-0.73 0.73,-1.53 1.13,-2.23 0.27,-0.47 0.4,-0.67 0.69,-1.04 0.24,-0.3 0.61,-0.68 0.76,-0.92 -1.98,0.17 -3.16,0.19 -5.15,0 0.38,0.58 0.77,0.77 1.41,1.9 0.43,0.74 0.75,1.44 1.16,2.29z"/>
    <path class="fil1" d="M34.43 55.63c0.6,-0.7 0.04,-1.24 1.32,-1.86 -0.2,-0.67 -0.55,-0.8 -1.28,-0.64 -0.47,0.89 -0.24,1.47 -0.04,2.5z"/>
    <path class="fil1" d="M46.6 53.77c0.46,0.22 0.63,0.25 0.86,0.78 0.22,0.49 0.17,0.74 0.47,1.08 0.18,-0.98 0.44,-1.66 -0.05,-2.5 -0.73,-0.16 -1.07,-0.04 -1.28,0.64z"/>
    <path class="fil1" d="M45.09 61.17c-0.59,1.21 1.44,2.04 2.04,-0.94 -0.41,0.19 -0.59,0.51 -1.01,0.77 -0.64,0.41 -0.64,0.15 -1.03,0.17z"/>
    <path class="fil1" d="M50.68 57.44c3.15,0.21 2.68,-1.52 1.52,-1.7 -0.31,0.42 0.02,0.6 -0.57,1.02 -0.31,0.22 -0.78,0.46 -0.95,0.68z"/>
    <path class="fil1" d="M35.23 60.23c1.03,3.44 2.28,1.93 2.08,0.91 -1.28,0.24 -1.2,-0.5 -2.08,-0.91z"/>
    <path class="fil1" d="M30.15 55.74c-1.13,0.17 -1.64,1.9 1.53,1.71 -0.26,-0.33 -0.6,-0.45 -0.96,-0.69 -0.58,-0.42 -0.26,-0.62 -0.57,-1.02z"/>
    <path class="fil1" d="M32.65 55.98c-0.67,-2.02 -0.29,-1.66 -0.02,-2.34 -0.33,-0.11 -0.75,-0.32 -1.14,-0.06 -0.3,0.19 -0.35,0.55 -0.17,0.94 0.22,0.47 0.98,1.27 1.33,1.46z"/>
    <path class="fil1" d="M49.71 55.97c0.33,-0.16 1.11,-0.99 1.32,-1.44 0.51,-1.1 -0.57,-1.15 -1.3,-0.89 0.21,0.52 0.68,0.34 -0.02,2.33z"/>
   </g>
  </g>
 </g>
</svg>
