<?xml version="1.0" encoding="UTF-8"?>
<!DOCTYPE svg PUBLIC "-//W3C//DTD SVG 1.1//EN" "http://www.w3.org/Graphics/SVG/1.1/DTD/svg11.dtd">
<!-- Creator: CorelDRAW -->
<svg xmlns="http://www.w3.org/2000/svg" xml:space="preserve" width="250px" height="250px" version="1.1" style="shape-rendering:geometricPrecision; text-rendering:geometricPrecision; image-rendering:optimizeQuality; fill-rule:evenodd; clip-rule:evenodd"
viewBox="0 0 46.75 46.75"
 xmlns:xlink="http://www.w3.org/1999/xlink"
 xmlns:xodm="http://www.corel.com/coreldraw/odm/2003">
 <defs>
  <style type="text/css">
   <![CDATA[
    .fil0 {fill:none}
    .fil1 {fill:white}
   ]]>
  </style>
 </defs>
 <g id="Livello_x0020_1">
  <metadata id="CorelCorpID_0Corel-Layer"/>
  <rect class="fil0" width="46.75" height="46.75"/>
  <path class="fil1" d="M17.19 22.66c-0.87,-1.39 -1.36,-3.02 -1.36,-4.78 0,-5 4.05,-9.05 9.05,-9.05 5,0 9.05,4.05 9.05,9.05 0,4.17 -2.81,7.68 -6.64,8.73l0.94 10.22c6.45,-2.05 11.13,-8.1 11.13,-15.23 0,-8.83 -7.16,-15.99 -15.99,-15.99 -8.82,0 -15.98,7.16 -15.98,15.99 0,2.91 0.78,5.65 2.15,8l7.65 -6.94zm-9.7 11l8.86 3.39 7.14 -17.93 -16 14.54zm10.37 3.98l9.13 3.5 -1.96 -21.48 -7.17 17.98z"/>
 </g>
</svg>
